<?xml version="1.0" encoding="UTF-8"?>
<svg xmlns:xlink="http://www.w3.org/1999/xlink" width="1428px" height="428px" viewBox="0 0 1428 428" version="1.1"
     xmlns="http://www.w3.org/2000/svg">
    <title>编组</title>
    <defs>
        <polygon id="path-1" points="0 0 446 0 446 371 0 371"></polygon>
        <polygon id="path-3" points="0 -3.19744231e-14 863 -3.19744231e-14 863 160 0 160"></polygon>
    </defs>
    <g id="-页面" stroke="none" stroke-width="1" fill="none" fill-rule="evenodd">
        <g id="工作台" transform="translate(-148.000000, -502.000000)">
            <g id="编组" transform="translate(148.000000, 502.000000)">
                <g transform="translate(0.000000, 57.000000)">
                    <mask id="mask-2" fill="white">
                        <use xlink:href="#path-1"></use>
                    </mask>
                    <g id="Clip-2"></g>
                    <path d="M446,1.47476166 C446,1.47476166 445.58395,-1.84345208 428.097893,1.47476166 C410.612407,4.79240488 86.7102901,60.0181847 76.3022079,61.2031796 C65.8935558,62.3887449 62.9794979,65.4701879 62.9794979,65.4701879 C62.9794979,65.4701879 62.8541131,65.9597043 62.6141721,66.8965178 C57.5041696,86.8451669 0.512197101,309.445619 0.114385177,316.236661 C-0.302234475,323.347771 -0.302234475,326.191872 13.4365252,327.614208 C27.1752849,329.035974 398.955035,369.566563 405.61639,370.277446 C412.277745,370.988899 418.9391,374.306542 418.522481,357.004591 C418.105861,339.702069 446,1.47476166 446,1.47476166"
                          id="Fill-1" fill="#000000" mask="url(#mask-2)"></path>
                </g>
                <path d="M449.094657,57.49422 C448.924738,63.7082944 421.929433,408.574883 422.099352,417.691026 C422.26927,426.807168 419.720492,427.546654 432.633728,424.096671 C445.54582,420.647258 511.602361,404.879165 518.908285,402.661278 C526.214209,400.444532 523.666004,396.501939 523.156248,390.588904 C522.646492,384.675869 498.706861,100.419739 497.517431,93.2746083 C496.328001,86.1294775 493.439386,81.6942739 487.832647,82.6800647 C482.225908,83.6652854 473.276866,82.4497238 470.162837,80.462748 C462.729331,75.7196629 456.400581,63.1062151 453.002783,57.49422 C449.604412,51.882225 449.094657,57.49422 449.094657,57.49422"
                      id="Fill-3" fill="#000000"></path>
                <path d="M232,97.3556393 C266.188516,-0.0921000768 361.70596,-15.0115294 393.936511,52.318755 C406.41861,78.3934303 387.407308,64.0853176 373.785099,68.9012161 C367.857778,-20.6301727 259.243281,38.6128432 262.215751,96.4110326 C266.190222,98.8568687 234.095506,97.2912602 232,98"
                      id="Fill-5" fill="#000000"></path>
                <path d="M138,117 C153.671596,112.977256 166.438849,105.110367 168.511263,95.458635 C187.167545,42.9324426 248.615152,-22.8339976 321.737679,7.8255867 C347.852256,22.8940431 351.357183,58.5024582 349.628937,73.0202837 C349.738341,72.9877594 324.447144,78.6418542 324.043146,78.7616806 C344.483516,-46.5698977 182.113864,37.559084 191.465652,105.2456 L138,117"
                      id="Fill-7" fill="#000000"></path>
                <path d="M274.825311,218.283095 L293.934691,148.567453 C294.340364,147.086528 293.132461,146.169277 291.84251,146.973793 L244.54738,176.486961 C247.75915,188.440263 248.751113,202.072062 247.032699,216.824375 C244.73996,203.554695 240.106624,192.244778 233.760571,183.151978 L196.359425,144.895601 C195.612462,144.13208 194.153862,145.062426 193.911711,146.455099 L184.774944,199.078327 C218.057822,201.313095 244.563903,230.294473 246.796815,275.32974 C232.4974,229.282707 191.548892,212.205666 152.894261,229.542908 L134.855472,239.74996 C133.889718,240.296553 133.514812,241.862314 134.185997,242.547833 L166.55383,275.616131 L149.395329,338.885963 C149.032957,340.224547 149.959967,341.291541 151.006057,340.736408 L202.65306,313.318513 L242.299083,361.883858 C243.161709,362.940035 244.822577,362.235727 245.101762,360.691603 L258.511203,286.44778 L318.042058,258.434326 C319.393542,257.797773 319.843088,255.919999 318.843718,255.084168 L274.825311,218.283095 Z M286.443978,297.443976 L267.927155,308.333131 L263.665876,334.589516 L303.264608,312.039144 C304.446303,311.366152 305.298103,310.098739 305.496951,308.714037 L309.9303,277.899295 L287.813696,288.035746 L286.443978,297.443976 Z M169.762182,344.89393 L202.890652,374 L206.663642,349.12547 L189.541606,334.635635 L169.762182,344.89393 Z M298.141843,217.106212 L316.524201,232.064637 L323.957937,180.39453 C324.152797,179.040574 323.661659,177.85629 322.670836,177.28863 L302.343297,165.638231 L295.757372,189.630242 L301.62824,193.164306 L298.141843,217.106212 Z M269.225082,146.628756 L233.228979,126 L229.606977,149.780206 L247.407035,160.495134 L269.225082,146.628756 Z M148.109367,275.582539 L135.072553,261.947894 L128.053606,306.127401 C127.867862,307.295173 128.172117,308.382096 128.852988,308.979932 L143.391135,321.753693 L149.152608,300.483829 L144.769969,296.7744 L148.109367,275.582539 Z M150.688128,217.876567 L141.203804,223.352744 L145.27763,197.713553 C145.459955,196.566847 146.107779,195.461135 146.978951,194.809778 L178.443136,171.302869 L174.901471,194.125399 L159.131489,205.639719 L157.855213,213.738973 L151.171859,217.598146 L151.170719,217.598146 L150.688128,217.876567 Z"
                      id="Fill-9" fill="#FFFFFF"></path>
                <path d="M1137.56502,361 C1135.16176,361 1133.18865,359.114426 1133.13517,356.744474 C1133.03741,352.410476 1128.30161,349.622762 1124.27547,348.552953 C1121.91189,347.925181 1120.51559,345.534906 1121.15508,343.214634 C1121.79514,340.894926 1124.22831,339.525909 1126.59305,340.151423 C1135.78169,342.594201 1141.82925,349.031686 1141.9989,356.551965 C1142.05295,358.95466 1140.11263,360.945239 1137.66451,360.998306 C1137.63173,360.999435 1137.59838,361 1137.56502,361"
                      id="Fill-11" fill="#000000"></path>
                <path d="M1126.34054,408 C1124.2161,408 1122.34816,406.463128 1122.00615,404.308444 C1121.62709,401.92286 1123.26303,399.683078 1125.65994,399.306944 C1128.42166,398.872376 1130.02169,397.090422 1130.87785,395.67212 C1132.3274,393.271218 1132.45622,390.692178 1131.93979,389.201259 C1130.04905,383.735123 1126.20032,382.297533 1118.99363,380.032221 C1114.05332,378.479464 1108.45236,376.719068 1103.24472,372.593511 C1099.12921,369.335388 1096.53223,362.944519 1097.07032,357.400093 C1097.90767,348.758096 1103.83126,342.298582 1112.91614,340.122339 C1115.28227,339.557288 1117.6484,341.003389 1118.21613,343.350395 C1118.78387,345.699103 1117.33204,348.060859 1114.97275,348.62591 C1112.44132,349.232376 1106.48239,351.383657 1105.81719,358.239728 C1105.54073,361.093352 1107.12309,364.488199 1108.71571,365.749921 C1112.65109,368.866781 1117.22146,370.303804 1121.64135,371.692606 C1128.75968,373.930686 1136.82823,376.467177 1140.24831,386.353309 C1141.71154,390.579281 1141.007,395.876923 1138.41001,400.178349 C1135.83811,404.437793 1131.79728,407.196106 1127.03197,407.945537 C1126.7994,407.981846 1126.56798,408 1126.34054,408"
                      id="Fill-13" fill="#000000"></path>
                <path d="M1114.69426,408 C1114.52761,408 1114.35929,407.990183 1114.19041,407.969395 C1104.81793,406.841623 1097.89146,401.285916 1096.11483,393.469469 C1095.57127,391.075913 1097.00958,388.680624 1099.32697,388.118182 C1101.64717,387.558049 1103.96456,389.042689 1104.50868,391.43509 C1105.61202,396.292075 1110.74843,398.59266 1115.18805,399.127385 C1117.55242,399.411493 1119.24629,401.621418 1118.9706,404.064058 C1118.71447,406.329997 1116.85172,408 1114.69426,408"
                      id="Fill-15" fill="#000000"></path>
                <path d="M674.750829,399.453917 C661.840714,398.121002 651.661966,386.877086 651.493698,373.880022 C651.324298,360.798798 661.219768,349.111336 674.265857,347.55096 C676.543979,347.278008 678.515028,345.785302 678.515028,343.286085 C678.515028,341.192316 676.559276,338.746553 674.265857,339.021211 C660.76369,340.635608 649.362314,349.310363 644.830431,362.318231 C640.368235,375.125934 644.266142,390.096782 654.325346,399.129218 C660.085523,404.30109 667.098921,407.193812 674.750829,407.983667 C677.036883,408.219657 679,405.854641 679,403.718792 C679,401.216732 677.043115,399.690476 674.750829,399.453917"
                      id="Fill-17" fill="#000000"></path>
                <path d="M683.993363,348.46092 C695.195865,351.505508 703.399175,361.657385 703.553412,373.594831 C703.711591,385.819643 695.552188,396.38106 684.056409,399.535776 C678.81514,400.974326 681.039203,409.275819 686.3013,407.832106 C701.347925,403.703443 712.204237,389.581786 711.997085,373.594831 C711.793874,357.886638 701.064218,344.194023 686.237691,340.16459 C680.981786,338.736364 678.73971,347.033267 683.993363,348.46092"
                      id="Fill-19" fill="#000000"></path>
                <path d="M1251.75083,399.453917 C1238.84071,398.121002 1228.66197,386.877086 1228.4937,373.880022 C1228.3243,360.798798 1238.21977,349.111336 1251.26586,347.55096 C1253.54398,347.278008 1255.51503,345.785302 1255.51503,343.286085 C1255.51503,341.192316 1253.55928,338.746553 1251.26586,339.021211 C1237.76369,340.635608 1226.36231,349.310363 1221.83043,362.318231 C1217.36824,375.125934 1221.26614,390.096782 1231.32535,399.129218 C1237.08552,404.30109 1244.09892,407.193812 1251.75083,407.983667 C1254.03688,408.219657 1256,405.854641 1256,403.718792 C1256,401.216732 1254.04312,399.690476 1251.75083,399.453917"
                      id="Fill-21" fill="#000000"></path>
                <path d="M1260.99336,348.46092 C1272.19587,351.505508 1280.39917,361.657385 1280.55341,373.594831 C1280.71159,385.819643 1272.55219,396.38106 1261.05641,399.535776 C1255.81514,400.974326 1258.0392,409.275819 1263.3013,407.832106 C1278.34793,403.703443 1289.20424,389.581786 1288.99709,373.594831 C1288.79387,357.886638 1278.06422,344.194023 1263.23769,340.16459 C1257.98179,338.736364 1255.73971,347.033267 1260.99336,348.46092"
                      id="Fill-23" fill="#000000"></path>
                <path d="M1315.16522,386.943731 L1329.75699,386.943731 C1331.51277,386.943731 1333.35765,387.111728 1335.10077,386.867161 C1339.669,386.226601 1344.03372,382.744951 1346.79041,379.239301 C1352.95343,371.398301 1353.70254,360.181935 1348.74797,351.534093 C1346.49318,347.598736 1342.97473,344.231369 1338.81641,342.347975 C1336.35408,341.232567 1334.37869,341 1331.78412,341 L1315.16522,341 C1309.61619,341 1309.607,349.571272 1315.16522,349.571272 L1327.08194,349.571272 C1329.25625,349.571272 1331.45182,349.482131 1333.62441,349.571272 C1333.84287,349.579843 1334.08261,349.53413 1334.29763,349.571272 C1334.78227,349.652985 1333.51115,349.345562 1334.43273,349.766125 C1335.98096,350.474112 1337.38719,351.262669 1338.62842,352.446076 C1344.2861,357.840835 1344.9392,367.084666 1340.4733,373.410264 C1339.57759,374.678813 1338.42203,375.840506 1337.14688,376.731918 C1336.46618,377.207909 1335.705,377.525618 1335.00304,377.959324 C1334.73801,378.12275 1334.40053,378.19932 1334.10906,378.302746 C1334.16885,378.282175 1334.68971,378.314746 1334.38789,378.372459 C1332.80229,378.674739 1330.85737,378.372459 1329.25107,378.372459 L1315.16522,378.372459 C1309.61619,378.372459 1309.607,386.943731 1315.16522,386.943731"
                      id="Fill-25" fill="#000000"></path>
                <path d="M723,344.124404 L723,396.377954 L723,403.874955 C723,409.370744 732,409.379284 732,403.874955 L732,351.621405 L732,344.124404 C732,338.629754 723,338.620645 723,344.124404"
                      id="Fill-27" fill="#000000"></path>
                <path d="M729.16956,379 L755.830224,379 C761.38532,379 761.394529,370 755.830224,370 L729.16956,370 C723.61504,370 723.605256,379 729.16956,379"
                      id="Fill-29" fill="#000000"></path>
                <path d="M777,344.124404 L777,396.377954 L777,403.874955 C777,409.370744 786,409.379284 786,403.874955 L786,351.621405 L786,344.124404 C786,338.629754 777,338.620645 777,344.124404"
                      id="Fill-31" fill="#000000"></path>
                <path d="M832,346.123533 L832,396.587817 L832,403.87604 C832,409.370099 841,409.379206 841,403.87604 L841,353.412325 L841,346.123533 C841,340.630044 832,340.620936 832,346.123533"
                      id="Fill-33" fill="#000000"></path>
                <path d="M1011,346.123533 L1011,396.587817 L1011,403.87604 C1011,409.370099 1020,409.379206 1020,403.87604 L1020,353.412325 L1020,346.123533 C1020,340.630044 1011,340.620936 1011,346.123533"
                      id="Fill-35" fill="#000000"></path>
                <path d="M1300,346.123533 L1300,396.587817 L1300,403.87604 C1300,409.370099 1309,409.379206 1309,403.87604 L1309,353.412325 L1309,346.123533 C1309,340.630044 1300,340.620936 1300,346.123533"
                      id="Fill-37" fill="#000000"></path>
                <path d="M1154,346.123533 L1154,396.587817 L1154,403.87604 C1154,409.370099 1163,409.379206 1163,403.87604 L1163,353.412325 L1163,346.123533 C1163,340.630044 1154,340.620936 1154,346.123533"
                      id="Fill-39" fill="#000000"></path>
                <path d="M1187.84653,370 L1159.15369,370 C1153.62002,370 1153.61085,379 1159.15369,379 L1187.84653,379 C1193.37962,379 1193.38936,370 1187.84653,370"
                      id="Fill-41" fill="#000000"></path>
                <path d="M1201,346.123533 L1201,396.587817 L1201,403.87604 C1201,409.370099 1210,409.379206 1210,403.87604 L1210,353.412325 L1210,346.123533 C1210,340.630044 1201,340.620936 1201,346.123533"
                      id="Fill-43" fill="#000000"></path>
                <path d="M924,346.123533 L924,396.587817 L924,403.87604 C924,409.370099 933,409.379206 933,403.87604 L933,353.412325 L933,346.123533 C933,340.630044 924,340.620936 924,346.123533"
                      id="Fill-45" fill="#000000"></path>
                <path d="M1054.90986,399 L1026.08993,399 C1020.64121,399 1020.63217,408 1026.08993,408 L1054.90986,408 C1060.35858,408 1060.36818,399 1054.90986,399"
                      id="Fill-47" fill="#000000"></path>
                <path d="M982.909652,382 L954.090348,382 C948.641068,382 948.632035,391 954.090348,391 L982.909652,391 C988.358932,391 988.367965,382 982.909652,382"
                      id="Fill-49" fill="#000000"></path>
                <path d="M782.169776,379 L808.83044,379 C814.385536,379 814.394169,370 808.83044,370 L782.169776,370 C776.61468,370 776.605471,379 782.169776,379"
                      id="Fill-51" fill="#000000"></path>
                <path d="M904.778957,388.900758 C901.613659,393.360421 897.113764,396.64865 891.96865,398.389613 C886.746684,400.156016 888.986308,408.535304 894.255303,406.752711 C901.660689,404.247366 907.671255,399.669171 912.207283,393.277738 C915.433948,388.731345 907.975798,384.395416 904.778957,388.900758"
                      id="Fill-53" fill="#000000"></path>
                <path d="M891.940581,350.36057 C897.22557,352.148431 901.738786,355.549741 904.874895,360.101832 C907.944886,364.558024 915.355953,360.353635 912.258034,355.856503 C907.814927,349.407194 901.705156,344.783319 894.213149,342.249021 C888.99884,340.485275 886.758762,348.60804 891.940581,350.36057"
                      id="Fill-55" fill="#000000"></path>
                <path d="M881.906292,399.490911 C869.055316,398.580122 858.687413,387.767338 858.515892,374.886021 C858.343236,361.876129 868.486232,350.609649 881.52179,349.514211 C886.945133,349.05825 886.993976,340.557555 881.52179,341.018047 C868.016538,342.153135 856.458782,350.668556 851.85783,363.476806 C847.334119,376.067554 851.281362,390.92961 861.416406,399.666498 C867.224818,404.673571 874.267382,407.445586 881.906292,407.987074 C887.376774,408.375632 887.352352,399.877769 881.906292,399.490911"
                      id="Fill-57" fill="#000000"></path>
                <path d="M948.784682,405.787154 C956.883471,388.508845 964.981694,371.230536 973.080482,353.952228 C974.235835,351.486848 975.391187,349.022043 976.547106,346.556664 C978.879321,341.580006 971.561146,337.207501 969.215344,342.212846 C961.116556,359.491155 953.018333,376.769464 944.919544,394.047199 C943.764192,396.512578 942.608839,398.977957 941.452921,401.443336 C939.120705,406.419994 946.438315,410.792499 948.784682,405.787154"
                      id="Fill-59" fill="#000000"></path>
                <path d="M1003.55252,401.510766 C996.944757,387.403961 990.337557,373.297724 983.729794,359.190919 C981.410443,354.238832 974.137518,358.556721 976.447311,363.488936 C983.055074,377.59574 989.662274,391.702545 996.270036,405.80935 C998.589388,410.760869 1005.86287,406.443548 1003.55252,401.510766"
                      id="Fill-61" fill="#000000"></path>
                <path d="M737.178379,350 L764.821404,350 C770.387962,350 770.397767,341 764.821404,341 L737.178379,341 C731.611822,341 731.602594,350 737.178379,350"
                      id="Fill-63" fill="#000000"></path>
                <path d="M790.178571,350 L817.821429,350 C823.387953,350 823.397758,341 817.821429,341 L790.178571,341 C784.612047,341 784.602242,350 790.178571,350"
                      id="Fill-65" fill="#000000"></path>
                <g transform="translate(565.000000, 142.000000)">
                    <mask id="mask-4" fill="white">
                        <use xlink:href="#path-3"></use>
                    </mask>
                    <g id="Clip-68"></g>
                    <path d="M390.685942,66.1001772 L381.72612,66.1001772 L381.72612,91.2331751 L390.685942,91.2331751 C400.647567,91.2331751 408.751467,99.3310604 408.751467,109.285292 C408.751467,119.238955 400.647567,127.33741 390.685942,127.33741 L320.742576,127.33741 L327.03035,152.470407 L390.685942,152.470407 C414.515545,152.470407 433.903133,133.097209 433.903133,109.285292 C433.903133,85.4728061 414.515545,66.1001772 390.685942,66.1001772 L390.685942,66.1001772 Z M359.233965,91.2331751 L366.635805,91.2331751 L366.635805,66.1001772 L359.233965,66.1001772 C350.108316,66.1001772 342.684822,58.6827626 342.684822,49.5644561 C342.684822,40.4455801 350.108316,33.0281655 359.233965,33.0281655 L421.343541,33.0281655 L424.484009,7.92705583 L424.484009,7.89516766 L359.233965,7.89516766 C336.240338,7.89516766 317.533726,26.5878953 317.533726,49.5644561 C317.533726,72.5410169 336.240338,91.2331751 359.233965,91.2331751 L359.233965,91.2331751 Z M820.557355,94.3200632 C845.708451,92.7490017 861.427886,77.041234 861.427886,50.3377441 C861.427886,23.6348236 842.564564,9.49754789 812.697922,9.49754789 L738.815723,9.45199337 L738.815723,151.361155 L763.967389,151.361155 L763.967389,33.0395541 L812.697922,33.0594842 C826.845129,33.0594842 834.705131,39.3425913 834.705131,50.3377441 C834.705131,61.3334662 826.845129,70.7581269 812.257994,70.8782769 L779.057704,70.7951399 L779.057704,94.3200632 L792.262372,94.3200632 L834.705131,150.868027 L863.000114,150.868027 L820.557355,94.3200632 Z M661.790207,9.49754789 L630.351337,9.49754789 L572.189712,150.868027 L598.912467,150.868027 L646.070772,33.0594842 L670.593318,94.3200632 L637.97485,94.3200632 L628.543189,117.882 L680.024979,117.882 L693.229646,150.868027 L719.952971,150.868027 L661.790207,9.49754789 Z M543.26561,33.0594842 L581.621373,33.0594842 L581.621373,9.49754789 L543.26561,9.49754789 L543.26561,33.0594842 Z M528.175294,9.49754789 L449.57755,9.49754789 L449.57755,33.0594842 L503.023629,33.0594842 L503.023629,150.868027 L528.175294,150.868027 L528.175294,9.49754789 Z M274.147858,28.6577788 L234.199921,5.61060851 L224.474215,-2.84217094e-14 L224.474215,29.0205067 L261.57231,50.4231588 C265.074065,52.4435017 267.230964,56.1766946 267.230964,60.2173805 L267.230964,99.7820501 C267.230964,103.822736 265.074065,107.556498 261.57231,109.576841 L224.474215,130.979493 L224.474215,160 L234.199921,154.389391 L274.147858,131.341652 C285.395075,124.853549 292.38206,112.759963 292.38206,99.7820501 L292.38206,60.2173805 C292.38206,47.2394673 285.395075,35.1470201 274.147858,28.6577788 L274.147858,28.6577788 Z M209.3839,130.979493 L172.285235,109.576841 C168.784049,107.556498 166.626581,103.822736 166.626581,99.7820501 L166.626581,60.2173805 C166.626581,56.1766946 168.784049,52.4435017 172.285235,50.4231588 L209.3839,29.0205067 L209.3839,-2.84217094e-14 L199.658194,5.61060851 L159.709687,28.6577788 C148.46247,35.1470201 141.475485,47.2394673 141.475485,60.2173805 L141.475485,99.7820501 C141.475485,112.759963 148.46247,124.853549 159.710257,131.342221 L199.658194,154.389391 L209.3839,160 L209.3839,130.979493 Z M29.860943,7.92705583 L0,7.92705583 L55.0183073,100.60317 L55.0183073,152.438519 L83.3132903,152.438519 L83.3132903,97.4610473 L29.860943,7.92705583 Z M78.1093794,58.8883274 L108.464386,7.92705583 L138.331598,7.92705583 L92.7449512,83.3243411 L78.1093794,58.8883274 Z"
                          id="Fill-67" fill="#000000" mask="url(#mask-4)"></path>
                </g>
            </g>
        </g>
    </g>
</svg>
