<?xml version="1.0" encoding="UTF-8"?>
<svg xmlns:xlink="http://www.w3.org/1999/xlink" width="440px" height="158px" viewBox="0 0 440 158" version="1.1"
     xmlns="http://www.w3.org/2000/svg">
    <title>编组</title>
    <defs>
        <polygon id="path-1" points="0 0 77.6719 0 77.6719 51.155 0 51.155"></polygon>
        <polygon id="path-3" points="0 0 92.641 0 92.641 157.3406 0 157.3406"></polygon>
    </defs>
    <g id="页面-1" stroke="none" stroke-width="1" fill="none" fill-rule="evenodd">
        <g id="参考" transform="translate(-618.000000, -436.000000)">
            <g id="编组" transform="translate(618.000000, 436.000000)">
                <path d="M71.242,62.8057 L77.672,62.8057 L72.481,71.7967 L66.051,71.7967 L71.242,62.8057 Z M63.162,62.8057 L69.535,62.8057 L64.344,71.7967 L57.971,71.7967 L63.162,62.8057 Z M24.727,66.1067 L59.606,66.1067 L55.467,73.2767 L68.269,73.2767 C57.834,90.8597 53.137,97.5167 47.873,102.2957 C38.541,110.7747 28.564,113.9607 11.38,113.9607 L0,113.9607 L7.556,100.8727 L18.14,100.8727 C28.95,100.8727 31.513,100.4747 35.534,98.1427 C38.388,96.5487 40.384,94.6717 42.923,91.2577 C44.481,89.1517 46.811,85.5097 48.716,82.2097 C49.143,81.4697 49.701,80.5027 50.433,79.1367 L17.204,79.1367 L24.727,66.1067 Z"
                      id="Fill-1" fill="#128AFA"></path>
                <path d="M96.385,65.2529 L110.041,65.2529 L89.541,100.7599 C92.377,100.8729 94.931,99.1099 96.879,95.6389 L107.26,77.6579 L120.063,77.6579 L109.156,96.5489 C103.247,107.4749 93.26,113.7329 81.667,113.9039 L68.296,113.9039 L96.385,65.2529 Z M77.906,91.5419 C72.124,101.5569 69.627,104.7999 64.784,108.5549 C59.379,112.5959 53.701,114.6439 45.739,115.3269 L53.525,101.8409 C57.926,101.2149 59.413,100.0209 62.492,94.7849 L79.542,65.2529 L93.084,65.2529 L77.906,91.5419 Z"
                      id="Fill-3" fill="#128AFA"></path>
                <polygon id="Fill-5" fill="#128AFA"
                         points="119.1507 83.291 169.6207 83.291 162.1957 96.15 111.7257 96.15"></polygon>
                <path d="M157.7078,103.207 C162.7708,103.207 165.6578,103.036 167.7188,102.523 C172.5378,101.271 176.2608,98.37 178.3988,94.273 L183.7208,85.055 L195.7268,85.055 C200.9708,84.941 203.5828,83.178 206.6368,77.886 L171.9848,77.886 L178.8838,65.936 L228.0458,65.936 C220.8268,78.341 217.0478,83.803 213.1638,87.672 C206.6478,93.932 199.3958,96.833 189.8048,96.891 C186.5038,102.41 184.3908,105.084 181.1638,107.816 C176.0178,112.197 170.4688,114.416 162.5688,115.384 C159.5838,115.726 155.8688,115.953 152.3398,115.953 C152.0558,115.953 151.2028,115.953 150.3818,115.895 L157.7078,103.207 Z"
                      id="Fill-7" fill="#2B2B2B"></path>
                <path d="M322.1702,85.9658 L359.2052,73.5608 C365.5982,71.4548 366.6602,70.6028 370.4092,64.7978 L384.4632,64.7978 C376.5922,77.5438 374.3632,79.1368 355.5072,85.6808 L338.3572,115.3838 L324.4752,115.3838 L338.3062,91.4288 L314.5162,99.2238 L322.1702,85.9658 Z"
                      id="Fill-9" fill="#2B2B2B"></path>
                <g transform="translate(361.764100, 62.805700)">
                    <mask id="mask-2" fill="white">
                        <use xlink:href="#path-1"></use>
                    </mask>
                    <g id="Clip-12"></g>
                    <path d="M71.242,0 L77.672,0 L72.481,8.991 L66.052,8.991 L71.242,0 Z M63.162,0 L69.535,0 L64.345,8.991 L57.971,8.991 L63.162,0 Z M24.728,3.301 L59.607,3.301 L55.467,10.471 L68.269,10.471 C57.834,28.054 53.137,34.711 47.874,39.49 C38.541,47.969 28.564,51.155 11.381,51.155 L0,51.155 L7.556,38.067 L18.14,38.067 C28.951,38.067 31.513,37.669 35.535,35.337 C38.388,33.743 40.385,31.866 42.924,28.452 C44.481,26.346 46.811,22.704 48.717,19.404 C49.144,18.664 49.702,17.697 50.433,16.331 L17.205,16.331 L24.728,3.301 Z"
                          id="Fill-11" fill="#2B2B2B" mask="url(#mask-2)"></path>
                </g>
                <polygon id="Fill-13" fill="#2B2B2B"
                         points="233.9182 83.291 226.4932 96.15 262.5972 96.15 270.0222 83.291"></polygon>
                <path d="M289.3953,95.9585 C287.8023,95.3585 286.2173,94.7445 284.6393,94.1215 C282.6443,93.3245 280.6693,92.4955 278.7023,91.6525 C274.0843,97.8915 269.6183,100.3505 262.3803,101.3285 L254.4623,115.0415 C269.9393,113.5305 279.7813,108.4395 289.3953,95.9585"
                      id="Fill-15" fill="#2B2B2B"></path>
                <path d="M303.7766,72.9912 L308.7046,64.4562 L294.7636,64.4562 L289.8366,72.9912 L278.5126,72.9912 L275.9306,77.4642 C280.2266,80.6792 284.4756,83.9742 288.6246,87.4372 C290.0546,88.6402 291.4766,89.8592 292.8896,91.0922 C294.0616,89.3482 295.2406,87.4922 296.4356,85.5102 L306.1656,85.5102 L300.6136,95.1272 C300.2026,95.8382 299.8046,96.4672 299.4076,97.0372 C300.5326,98.1202 301.6436,99.2292 302.7296,100.3782 C301.0786,99.9352 299.4576,99.4462 297.8516,98.9282 C296.0146,100.7542 293.9636,101.3862 290.7976,101.3862 L287.1886,101.3282 L279.8946,113.9612 C291.5356,113.9042 293.2596,113.6772 298.4596,111.5712 C305.2076,108.5542 308.7326,104.9132 314.3086,95.3542 L327.2196,72.9912 L303.7766,72.9912 Z"
                      id="Fill-17" fill="#2B2B2B"></path>
                <path d="M199.6238,69.9497 C197.6458,67.8767 195.7738,65.7107 194.0248,63.4517 C190.3048,58.5907 187.1538,53.2377 185.4288,47.5287 C184.5528,44.6917 184.0748,41.7557 184.2328,38.9057 C184.2328,38.1887 184.3688,37.4937 184.4438,36.7907 C184.6058,36.1087 184.6988,35.4067 184.9418,34.7517 C185.3228,33.4087 185.9538,32.1607 186.6958,30.9977 C187.4048,29.8067 188.3748,28.7947 189.3828,27.8367 C190.4238,26.9037 191.6008,26.1097 192.8408,25.4087 C195.3538,24.0457 198.1738,23.1647 201.0708,22.6157 C206.8908,21.5197 213.0168,21.7027 219.0138,22.5607 C231.0518,24.3277 242.7378,28.6937 253.4838,34.6107 C264.2008,40.5777 274.1448,48.1637 282.0128,57.5627 C285.8948,62.2697 289.2668,67.4837 291.2178,73.2057 C291.8238,74.9877 292.2858,76.8217 292.5238,78.6707 L294.5568,78.6707 C294.3388,76.5777 293.8628,74.5227 293.2238,72.5427 C291.2358,66.4347 287.7998,60.9797 283.8628,56.0547 C275.8828,46.2337 265.8178,38.3317 254.9288,32.0527 C244.0248,25.7877 232.1238,21.0557 219.5568,18.9657 C213.2768,18.0137 206.7928,17.6797 200.3598,18.8667 C197.1618,19.4987 193.9758,20.5047 191.0278,22.1327 C189.5678,22.9697 188.1618,23.9337 186.8948,25.0887 C185.6588,26.2677 184.4758,27.5457 183.5918,29.0357 C182.6998,30.5087 181.9648,32.0937 181.5338,33.7557 C181.2638,34.5737 181.1598,35.4237 180.9938,36.2597 C180.9178,37.1027 180.7898,37.9467 180.8058,38.7877 C180.7248,42.1657 181.4568,45.4307 182.5318,48.4857 C184.7458,54.6067 188.4028,59.9227 192.5018,64.6927 C194.0888,66.5237 195.7568,68.2737 197.4908,69.9497"
                      id="Fill-19" fill="#2B2B2B"></path>
                <g transform="translate(181.336300, 0.000000)">
                    <mask id="mask-4" fill="white">
                        <use xlink:href="#path-3"></use>
                    </mask>
                    <g id="Clip-22"></g>
                    <path d="M92.641,0 C85.986,13.739 78.823,27.178 71.481,40.513 C67.858,47.208 64.051,53.795 60.33,60.433 L48.892,80.185 L37.177,99.772 C33.174,106.244 29.268,112.773 25.168,119.188 C17.072,132.078 8.792,144.859 0,157.341 C6.649,143.598 13.809,130.157 21.153,116.823 C24.773,110.126 28.588,103.543 32.304,96.903 L43.749,77.156 L55.471,57.572 C59.471,51.099 63.383,44.574 67.48,38.157 C75.579,25.269 83.856,12.485 92.641,0"
                          id="Fill-21" fill="#128AFA" mask="url(#mask-4)"></path>
                </g>
                <path d="M302.0691,100.0444 C290.9271,94.3324 279.9811,88.2934 269.1041,82.1384 C263.6471,79.0914 258.2601,75.9264 252.8411,72.8164 L236.6891,63.3104 L220.6431,53.6244 C215.3321,50.3324 209.9841,47.1034 204.7101,43.7494 C194.1231,37.1064 183.6071,30.3464 173.2871,23.2554 C184.4311,28.9634 195.3781,35.0014 206.2551,41.1574 C211.7131,44.2024 217.0971,47.3724 222.5181,50.4794 L238.6681,59.9904 L254.7111,69.6804 C260.0231,72.9704 265.3691,76.2044 270.6431,79.5564 C281.2301,86.1994 291.7471,92.9584 302.0691,100.0444"
                      id="Fill-23" fill="#128AFA"></path>
                <path d="M216.866,133.3594 C218.68,133.3324 219.402,132.9774 220.216,131.6154 L220.877,130.4704 C221.495,129.3534 221.193,129.0264 219.492,128.9994 L212.324,128.9994 L209.807,133.3594 L216.866,133.3594 Z M210.768,142.7864 C213.467,142.7864 213.958,142.5954 215.003,141.0704 L215.884,139.5444 C216.706,138.0734 216.244,137.6914 213.563,137.6644 L207.321,137.6644 L204.364,142.7864 L210.768,142.7864 Z M222.725,124.7204 C226.995,124.6394 228.397,125.8924 227.009,128.5364 L225.073,131.8874 C224.04,133.6304 222.889,134.5854 220.622,135.5384 L220.591,135.5934 C222.192,136.5474 222.28,137.3374 221.034,139.5444 L219.02,143.0314 C218.159,144.4764 216.716,145.7024 214.97,146.4114 C213.508,147.0094 213.067,147.0644 210.382,147.0914 L197.001,147.0914 L209.917,124.7204 L222.725,124.7204 Z"
                      id="Fill-25" fill="#2B2B2B"></path>
                <polygon id="Fill-27" fill="#2B2B2B"
                         points="238.4363 124.6934 225.5043 147.0914 220.5713 147.0914 233.5023 124.6934"></polygon>
                <path d="M243.6795,130.0078 L237.5595,140.6068 C236.4075,142.6508 236.4635,142.9778 238.1645,143.0048 L242.1175,143.0048 C243.4405,142.9778 244.0505,142.4868 245.1785,140.5798 L251.2835,130.0078 L256.0255,130.0078 L249.0085,142.1588 C247.1125,145.5388 244.7055,147.0648 241.1475,147.0918 L234.3605,147.0918 C230.7975,147.1738 230.0825,145.6758 232.0885,142.2958 L239.1835,130.0078 L243.6795,130.0078 Z"
                      id="Fill-29" fill="#2B2B2B"></path>
                <path d="M266.8777,136.792 L267.4757,135.757 C268.2027,134.449 268.0377,134.122 266.6357,134.095 L263.0947,134.095 C261.4147,134.122 261.0007,134.367 260.0927,135.893 L259.5737,136.792 L266.8777,136.792 Z M257.4497,140.471 L256.8057,141.588 C256.2227,142.786 256.5317,143.005 258.6307,143.005 L268.4147,143.005 L266.0557,147.092 L255.4537,147.092 C251.1397,147.201 250.0787,145.402 252.2817,141.588 L255.8527,135.402 C257.9407,131.832 260.4507,130.034 263.4097,130.008 L270.8497,130.008 C274.3287,130.116 274.8247,131.288 272.8877,134.83 L269.6317,140.471 L257.4497,140.471 Z"
                      id="Fill-31" fill="#2B2B2B"></path>
                <path d="M287.4578,137.583 L289.7588,128.454 L281.7078,137.583 L287.4578,137.583 Z M288.7528,124.721 L295.4558,124.721 L289.9538,147.092 L284.7488,147.092 L286.0358,141.888 L277.9968,141.888 L273.4108,147.092 L268.2328,147.092 L288.7528,124.721 Z"
                      id="Fill-33" fill="#2B2B2B"></path>
                <path d="M309.4734,134.0947 L307.1294,134.0947 C305.1764,134.1757 304.7254,134.5307 303.3524,136.9557 L297.5004,147.0917 L292.5944,147.0917 L299.1234,135.7827 C301.4444,131.6687 303.5604,130.0337 306.6284,130.0077 L311.8334,130.0077 L309.4734,134.0947 Z"
                      id="Fill-35" fill="#2B2B2B"></path>
                <path d="M327.0242,134.0947 L319.6102,134.0947 C317.1162,134.1217 316.5612,134.4207 315.3702,136.4377 L313.2132,140.1707 C312.3952,141.5877 312.1392,142.0777 312.1312,142.1877 C312.1272,142.9497 312.2202,142.9777 314.2212,143.0047 L321.8792,143.0047 L319.5202,147.0917 L309.1902,147.0917 C305.7502,147.0097 305.2902,145.7297 307.3052,142.0517 L311.4422,134.8847 C313.4442,131.3697 315.4482,130.1157 319.1912,130.0077 L329.3832,130.0077 L327.0242,134.0947 Z"
                      id="Fill-37" fill="#2B2B2B"></path>
                <path d="M335.6394,124.6934 L340.3524,124.6934 L337.3004,129.9804 L344.6044,129.9804 C348.2584,130.1164 348.5594,131.5334 345.9554,135.9474 L339.5224,147.0914 L334.8074,147.0914 L340.6434,136.9834 C342.0784,134.4494 342.0374,134.0944 340.1194,134.0664 L334.9414,134.0664 L327.4204,147.0914 L322.7074,147.0914 L335.6394,124.6934 Z"
                      id="Fill-39" fill="#2B2B2B"></path>
                <path d="M360.616,125.375 L358.649,128.781 L353.852,128.781 L355.819,125.375 L360.616,125.375 Z M353.144,130.008 L357.941,130.008 L348.077,147.092 L343.28,147.092 L353.144,130.008 Z"
                      id="Fill-41" fill="#2B2B2B"></path>
                <polygon id="Fill-43" fill="#2B2B2B"
                         points="361.9832 142.9238 373.2282 130.0078 378.5972 130.0078 362.7922 147.0918 356.5792 147.0918 360.6922 130.0078 365.7342 130.0078"></polygon>
                <path d="M388.4959,136.792 L389.0939,135.757 C389.8209,134.449 389.6549,134.122 388.2549,134.095 L384.7119,134.095 C383.0339,134.122 382.6199,134.367 381.7119,135.893 L381.1919,136.792 L388.4959,136.792 Z M379.0679,140.471 L378.4229,141.588 C377.8409,142.786 378.1499,143.005 380.2489,143.005 L390.0329,143.005 L387.6729,147.092 L377.0709,147.092 C372.7579,147.201 371.6979,145.402 373.8989,141.588 L377.4719,135.402 C379.5589,131.832 382.0689,130.034 385.0279,130.008 L392.4679,130.008 C395.9479,130.116 396.4429,131.288 394.5069,134.83 L391.2499,140.471 L379.0679,140.471 Z"
                      id="Fill-45" fill="#2B2B2B"></path>
            </g>
        </g>
    </g>
</svg>
